<mxfile host="app.diagrams.net" modified="2022-04-23T13:17:30.727Z" agent="5.0 (Windows NT 10.0; Win64; x64) AppleWebKit/537.36 (KHTML, like Gecko) Chrome/98.0.4758.141 YaBrowser/22.3.3.852 Yowser/2.5 Safari/537.36" etag="w2xvA7FlNEXJaKZIfoeM" version="17.4.6" type="github">
  <diagram id="6a731a19-8d31-9384-78a2-239565b7b9f0" name="Page-1">
    <mxGraphModel dx="1038" dy="575" grid="1" gridSize="10" guides="1" tooltips="1" connect="1" arrows="1" fold="1" page="1" pageScale="1" pageWidth="1169" pageHeight="827" background="none" math="0" shadow="0">
      <root>
        <mxCell id="0" />
        <mxCell id="1" parent="0" />
        <mxCell id="NXoweuJ5Fb_PFdUOxE-F-57" style="edgeStyle=orthogonalEdgeStyle;rounded=0;orthogonalLoop=1;jettySize=auto;html=1;exitX=0.5;exitY=1;exitDx=0;exitDy=0;entryX=0.5;entryY=0;entryDx=0;entryDy=0;" edge="1" parent="1" source="NXoweuJ5Fb_PFdUOxE-F-55" target="NXoweuJ5Fb_PFdUOxE-F-56">
          <mxGeometry relative="1" as="geometry" />
        </mxCell>
        <mxCell id="NXoweuJ5Fb_PFdUOxE-F-55" value="НАЧАЛО" style="rounded=1;whiteSpace=wrap;html=1;" vertex="1" parent="1">
          <mxGeometry x="440" y="20" width="120" height="60" as="geometry" />
        </mxCell>
        <mxCell id="NXoweuJ5Fb_PFdUOxE-F-60" style="edgeStyle=orthogonalEdgeStyle;rounded=0;orthogonalLoop=1;jettySize=auto;html=1;exitX=0.5;exitY=1;exitDx=0;exitDy=0;entryX=0.5;entryY=0;entryDx=0;entryDy=0;" edge="1" parent="1" source="NXoweuJ5Fb_PFdUOxE-F-56" target="NXoweuJ5Fb_PFdUOxE-F-58">
          <mxGeometry relative="1" as="geometry" />
        </mxCell>
        <mxCell id="NXoweuJ5Fb_PFdUOxE-F-56" value="arr[ ]" style="shape=parallelogram;perimeter=parallelogramPerimeter;whiteSpace=wrap;html=1;fixedSize=1;" vertex="1" parent="1">
          <mxGeometry x="440" y="110" width="120" height="60" as="geometry" />
        </mxCell>
        <mxCell id="NXoweuJ5Fb_PFdUOxE-F-61" value="НЕТ" style="edgeStyle=orthogonalEdgeStyle;rounded=0;orthogonalLoop=1;jettySize=auto;html=1;exitX=1;exitY=0.5;exitDx=0;exitDy=0;entryX=0;entryY=0.5;entryDx=0;entryDy=0;" edge="1" parent="1" source="NXoweuJ5Fb_PFdUOxE-F-58" target="NXoweuJ5Fb_PFdUOxE-F-59">
          <mxGeometry relative="1" as="geometry" />
        </mxCell>
        <mxCell id="NXoweuJ5Fb_PFdUOxE-F-63" value="ДА" style="edgeStyle=orthogonalEdgeStyle;rounded=0;orthogonalLoop=1;jettySize=auto;html=1;exitX=0.5;exitY=1;exitDx=0;exitDy=0;entryX=0.5;entryY=0;entryDx=0;entryDy=0;" edge="1" parent="1" source="NXoweuJ5Fb_PFdUOxE-F-58" target="NXoweuJ5Fb_PFdUOxE-F-62">
          <mxGeometry relative="1" as="geometry" />
        </mxCell>
        <mxCell id="NXoweuJ5Fb_PFdUOxE-F-58" value="arr.length &amp;gt; 0" style="rhombus;whiteSpace=wrap;html=1;" vertex="1" parent="1">
          <mxGeometry x="440" y="200" width="120" height="80" as="geometry" />
        </mxCell>
        <mxCell id="NXoweuJ5Fb_PFdUOxE-F-59" value="массив пуст" style="shape=document;whiteSpace=wrap;html=1;boundedLbl=1;" vertex="1" parent="1">
          <mxGeometry x="730" y="200" width="120" height="80" as="geometry" />
        </mxCell>
        <mxCell id="NXoweuJ5Fb_PFdUOxE-F-65" style="edgeStyle=orthogonalEdgeStyle;rounded=0;orthogonalLoop=1;jettySize=auto;html=1;exitX=0.5;exitY=1;exitDx=0;exitDy=0;entryX=0.5;entryY=0;entryDx=0;entryDy=0;" edge="1" parent="1" source="NXoweuJ5Fb_PFdUOxE-F-62" target="NXoweuJ5Fb_PFdUOxE-F-64">
          <mxGeometry relative="1" as="geometry" />
        </mxCell>
        <mxCell id="NXoweuJ5Fb_PFdUOxE-F-62" value="startPos = 0&lt;br&gt;endPos = arr.length - 1&lt;br&gt;minPos, tmp" style="shape=parallelogram;perimeter=parallelogramPerimeter;whiteSpace=wrap;html=1;fixedSize=1;" vertex="1" parent="1">
          <mxGeometry x="415" y="320" width="170" height="60" as="geometry" />
        </mxCell>
        <mxCell id="NXoweuJ5Fb_PFdUOxE-F-68" value="ДА" style="edgeStyle=orthogonalEdgeStyle;rounded=0;orthogonalLoop=1;jettySize=auto;html=1;exitX=0.5;exitY=1;exitDx=0;exitDy=0;entryX=0.5;entryY=0;entryDx=0;entryDy=0;" edge="1" parent="1" source="NXoweuJ5Fb_PFdUOxE-F-64" target="NXoweuJ5Fb_PFdUOxE-F-66">
          <mxGeometry relative="1" as="geometry" />
        </mxCell>
        <mxCell id="NXoweuJ5Fb_PFdUOxE-F-64" value="startPos &amp;lt; endPos" style="rhombus;whiteSpace=wrap;html=1;" vertex="1" parent="1">
          <mxGeometry x="435" y="410" width="130" height="80" as="geometry" />
        </mxCell>
        <mxCell id="NXoweuJ5Fb_PFdUOxE-F-69" style="edgeStyle=orthogonalEdgeStyle;rounded=0;orthogonalLoop=1;jettySize=auto;html=1;exitX=0.5;exitY=1;exitDx=0;exitDy=0;entryX=0.5;entryY=0;entryDx=0;entryDy=0;" edge="1" parent="1" source="NXoweuJ5Fb_PFdUOxE-F-66" target="NXoweuJ5Fb_PFdUOxE-F-67">
          <mxGeometry relative="1" as="geometry" />
        </mxCell>
        <mxCell id="NXoweuJ5Fb_PFdUOxE-F-66" value="minPos = startPos" style="rounded=0;whiteSpace=wrap;html=1;" vertex="1" parent="1">
          <mxGeometry x="440" y="530" width="120" height="60" as="geometry" />
        </mxCell>
        <mxCell id="NXoweuJ5Fb_PFdUOxE-F-71" value="ДА" style="edgeStyle=orthogonalEdgeStyle;rounded=0;orthogonalLoop=1;jettySize=auto;html=1;exitX=0.5;exitY=1;exitDx=0;exitDy=0;entryX=0.5;entryY=0;entryDx=0;entryDy=0;" edge="1" parent="1" source="NXoweuJ5Fb_PFdUOxE-F-67" target="NXoweuJ5Fb_PFdUOxE-F-70">
          <mxGeometry relative="1" as="geometry" />
        </mxCell>
        <mxCell id="NXoweuJ5Fb_PFdUOxE-F-78" value="НЕТ" style="edgeStyle=orthogonalEdgeStyle;rounded=0;orthogonalLoop=1;jettySize=auto;html=1;exitX=1;exitY=0.5;exitDx=0;exitDy=0;entryX=0.5;entryY=0;entryDx=0;entryDy=0;" edge="1" parent="1" source="NXoweuJ5Fb_PFdUOxE-F-67" target="NXoweuJ5Fb_PFdUOxE-F-77">
          <mxGeometry x="-0.7895" relative="1" as="geometry">
            <Array as="points">
              <mxPoint x="680" y="660" />
              <mxPoint x="680" y="920" />
              <mxPoint x="500" y="920" />
            </Array>
            <mxPoint as="offset" />
          </mxGeometry>
        </mxCell>
        <mxCell id="NXoweuJ5Fb_PFdUOxE-F-67" value="i = startPos; i &amp;lt;= endPos; i++" style="shape=hexagon;perimeter=hexagonPerimeter2;whiteSpace=wrap;html=1;fixedSize=1;" vertex="1" parent="1">
          <mxGeometry x="400" y="630" width="200" height="60" as="geometry" />
        </mxCell>
        <mxCell id="NXoweuJ5Fb_PFdUOxE-F-73" value="ДА" style="edgeStyle=orthogonalEdgeStyle;rounded=0;orthogonalLoop=1;jettySize=auto;html=1;exitX=0.5;exitY=1;exitDx=0;exitDy=0;" edge="1" parent="1" source="NXoweuJ5Fb_PFdUOxE-F-70" target="NXoweuJ5Fb_PFdUOxE-F-72">
          <mxGeometry relative="1" as="geometry" />
        </mxCell>
        <mxCell id="NXoweuJ5Fb_PFdUOxE-F-75" value="НЕТ" style="edgeStyle=orthogonalEdgeStyle;rounded=0;orthogonalLoop=1;jettySize=auto;html=1;exitX=1;exitY=0.5;exitDx=0;exitDy=0;entryX=0;entryY=0.5;entryDx=0;entryDy=0;" edge="1" parent="1" source="NXoweuJ5Fb_PFdUOxE-F-70" target="NXoweuJ5Fb_PFdUOxE-F-67">
          <mxGeometry x="-0.9079" relative="1" as="geometry">
            <Array as="points">
              <mxPoint x="610" y="755" />
              <mxPoint x="610" y="900" />
              <mxPoint x="340" y="900" />
              <mxPoint x="340" y="660" />
            </Array>
            <mxPoint as="offset" />
          </mxGeometry>
        </mxCell>
        <mxCell id="NXoweuJ5Fb_PFdUOxE-F-70" value="arr[ minPos ] &amp;gt; arr[ i ]" style="rhombus;whiteSpace=wrap;html=1;" vertex="1" parent="1">
          <mxGeometry x="435" y="720" width="130" height="70" as="geometry" />
        </mxCell>
        <mxCell id="NXoweuJ5Fb_PFdUOxE-F-74" style="edgeStyle=orthogonalEdgeStyle;rounded=0;orthogonalLoop=1;jettySize=auto;html=1;exitX=0.5;exitY=1;exitDx=0;exitDy=0;entryX=0;entryY=0.5;entryDx=0;entryDy=0;" edge="1" parent="1" source="NXoweuJ5Fb_PFdUOxE-F-72" target="NXoweuJ5Fb_PFdUOxE-F-67">
          <mxGeometry relative="1" as="geometry">
            <mxPoint x="360" y="710" as="targetPoint" />
            <Array as="points">
              <mxPoint x="500" y="900" />
              <mxPoint x="340" y="900" />
              <mxPoint x="340" y="660" />
            </Array>
          </mxGeometry>
        </mxCell>
        <mxCell id="NXoweuJ5Fb_PFdUOxE-F-72" value="minPos = i" style="rounded=0;whiteSpace=wrap;html=1;" vertex="1" parent="1">
          <mxGeometry x="440" y="820" width="120" height="60" as="geometry" />
        </mxCell>
        <mxCell id="NXoweuJ5Fb_PFdUOxE-F-77" value="" style="rounded=0;whiteSpace=wrap;html=1;" vertex="1" parent="1">
          <mxGeometry x="440" y="941" width="120" height="60" as="geometry" />
        </mxCell>
      </root>
    </mxGraphModel>
  </diagram>
</mxfile>
